<svg width="25" height="25" viewBox="0 0 25 25" fill="none" xmlns="http://www.w3.org/2000/svg">
<path d="M9.5609 24.8926L9.08329 21.0526C8.82458 20.9526 8.5808 20.8326 8.35194 20.6926C8.12309 20.5526 7.89921 20.4026 7.6803 20.2426L4.12806 21.7426L0.844482 16.0426L3.91911 13.7026C3.89921 13.5626 3.88926 13.4276 3.88926 13.2976V12.4876C3.88926 12.3576 3.89921 12.2226 3.91911 12.0826L0.844482 9.74258L4.12806 4.04258L7.6803 5.54258C7.89921 5.38258 8.12806 5.23258 8.36687 5.09258C8.60568 4.95258 8.84448 4.83258 9.08329 4.73258L9.5609 0.892578H16.1281L16.6057 4.73258C16.8644 4.83258 17.1082 4.95258 17.337 5.09258C17.5659 5.23258 17.7898 5.38258 18.0087 5.54258L21.5609 4.04258L24.8445 9.74258L21.7699 12.0826C21.7898 12.2226 21.7997 12.3576 21.7997 12.4876V13.2976C21.7997 13.4276 21.7798 13.5626 21.74 13.7026L24.8146 16.0426L21.531 21.7426L18.0087 20.2426C17.7898 20.4026 17.5609 20.5526 17.3221 20.6926C17.0833 20.8326 16.8445 20.9526 16.6057 21.0526L16.1281 24.8926H9.5609ZM12.9042 17.0926C14.0584 17.0926 15.0435 16.6826 15.8594 15.8626C16.6753 15.0426 17.0833 14.0526 17.0833 12.8926C17.0833 11.7326 16.6753 10.7426 15.8594 9.92258C15.0435 9.10258 14.0584 8.69258 12.9042 8.69258C11.7301 8.69258 10.74 9.10258 9.93403 9.92258C9.12806 10.7426 8.72508 11.7326 8.72508 12.8926C8.72508 14.0526 9.12806 15.0426 9.93403 15.8626C10.74 16.6826 11.7301 17.0926 12.9042 17.0926Z" fill="#110F0F"/>
</svg>
