<svg width="500" height="500" viewBox="0 0 500 500" fill="none" xmlns="http://www.w3.org/2000/svg">
<g clip-path="url(#clip0_2495_4483)">
<g filter="url(#filter0_dd_2495_4483)">
<path fill-rule="evenodd" clip-rule="evenodd" d="M41.9358 401.292C41.9366 372.636 64.7196 349.304 93.1604 348.417L104.347 203.847C104.237 203.634 104.027 203.28 103.636 202.778C102.258 201.008 99.6646 198.803 96.1681 196.975C71.0442 183.836 53.6846 157.682 53.1484 127.382L53.136 125.937C53.1368 81.6807 89.0142 45.8037 133.27 45.8032H377.931L379.999 45.8297C422.611 46.9096 456.957 81.2546 458.038 123.867L458.065 125.937C458.064 164.262 431.157 196.299 395.203 204.199C390.843 210.517 384.528 215.38 377.129 217.914V288.365C377.129 295.974 374.931 303.419 370.804 309.806L345.873 348.388H405.163C433.923 348.39 457.322 371.34 458.047 399.926L458.065 401.292C458.065 430.508 434.381 454.196 405.163 454.197H94.8375C65.6189 454.196 41.9358 430.508 41.9358 401.292Z" fill="#1255FF"/>
</g>
<path d="M377.928 71.1382C408.193 71.1383 432.728 95.673 432.729 125.938C432.729 126.965 432.698 127.987 432.642 129H171.453C165.324 129 160.354 133.969 160.353 140.098C160.353 146.228 165.323 151.198 171.453 151.198H426.568C417.435 168.75 399.082 180.739 377.928 180.739H375.852C376.112 181.671 376.255 182.654 376.255 183.669C376.254 189.665 371.393 194.527 365.397 194.527H351.792V288.366C351.792 291.095 351.004 293.765 349.523 296.057L317.6 345.46C314.035 350.976 305.965 350.976 302.401 345.46L270.478 296.057C268.997 293.765 268.209 291.095 268.209 288.366V194.527H254.605C248.609 194.527 243.748 189.665 243.748 183.669C243.748 182.654 243.89 181.671 244.151 180.739H222.556C205.549 180.739 193.187 197.158 193.187 244.807C193.187 313.392 239.811 369.467 298.635 373.49C298.696 373.494 298.744 373.546 298.745 373.607C298.745 373.671 298.797 373.723 298.861 373.723H405.16C420.385 373.724 432.728 386.067 432.729 401.293C432.729 416.519 420.386 428.864 405.16 428.864H94.8369C79.6107 428.864 67.2678 416.519 67.2678 401.293C67.2683 386.067 79.611 373.724 94.8369 373.723C107.125 373.723 117.344 364.266 118.292 352.014L129.646 205.276C130.681 191.896 119.799 180.745 107.907 174.526C90.4094 165.376 78.4679 147.052 78.4679 125.938C78.4684 95.6729 103.004 71.1382 133.268 71.1382H377.928ZM287.279 281.177C283.145 281.254 278.86 281.945 275.342 283.409L278.82 291.763C281.142 290.796 284.482 290.218 288.055 290.218C291.628 290.218 294.969 290.796 297.29 291.763C301.029 293.318 305.632 294.002 310.001 294.002C314.371 294.002 318.974 293.318 322.712 291.763C325.034 290.796 328.374 290.218 331.947 290.218C335.52 290.218 338.861 290.796 341.182 291.763L344.658 283.409C341.139 281.945 336.855 281.254 332.72 281.177V194.527H323.672V282.034C322.112 282.38 320.615 282.835 319.236 283.409C316.915 284.376 313.574 284.954 310.001 284.954C306.428 284.954 303.088 284.376 300.766 283.409C299.386 282.835 297.888 282.379 296.327 282.033V194.527H287.279V281.177Z" fill="white"/>
</g>
<defs>
<filter id="filter0_dd_2495_4483" x="-26.7796" y="-21.1026" width="553.559" height="545.825" filterUnits="userSpaceOnUse" color-interpolation-filters="sRGB">
<feFlood flood-opacity="0" result="BackgroundImageFix"/>
<feColorMatrix in="SourceAlpha" type="matrix" values="0 0 0 0 0 0 0 0 0 0 0 0 0 0 0 0 0 0 127 0" result="hardAlpha"/>
<feOffset dy="1.80957"/>
<feGaussianBlur stdDeviation="34.3577"/>
<feComposite in2="hardAlpha" operator="out"/>
<feColorMatrix type="matrix" values="0 0 0 0 0 0 0 0 0 0 0 0 0 0 0 0 0 0 0.08 0"/>
<feBlend mode="normal" in2="BackgroundImageFix" result="effect1_dropShadow_2495_4483"/>
<feColorMatrix in="SourceAlpha" type="matrix" values="0 0 0 0 0 0 0 0 0 0 0 0 0 0 0 0 0 0 127 0" result="hardAlpha"/>
<feOffset dy="1.80957"/>
<feGaussianBlur stdDeviation="13.7431"/>
<feComposite in2="hardAlpha" operator="out"/>
<feColorMatrix type="matrix" values="0 0 0 0 0 0 0 0 0 0 0 0 0 0 0 0 0 0 0.2 0"/>
<feBlend mode="normal" in2="effect1_dropShadow_2495_4483" result="effect2_dropShadow_2495_4483"/>
<feBlend mode="normal" in="SourceGraphic" in2="effect2_dropShadow_2495_4483" result="shape"/>
</filter>
<clipPath id="clip0_2495_4483">
<rect width="500" height="500" fill="white"/>
</clipPath>
</defs>
</svg>
